# xmcd
#
# Track frame offsets:
#	150
#	19395
#	44699
#	63787
#	77977
#	95088
#	120676
#	131334
#	149188
#	163354
#	183189
#	209624
#
# Disc length: 3354 seconds
#
# Revision: 1
# Processed by: cddbd v1.5.2PL0 Copyright (c) Steve Scherf et al.
# Submitted via: audiograbber 1.83.01
#
DISCID=bb0d180c
DTITLE=Tandy - Lichtenstein's Oriole
DYEAR=1999
DGENRE=Alt. Country
TTITLE0=The Distric Doctor
TTITLE1=Bright Brown
TTITLE2=I Signed A Circle
TTITLE3=Pictures Of China
TTITLE4=Ted
TTITLE5=Lorna Boy
TTITLE6=You I'll Be Following
TTITLE7=Gate Thirty-Two
TTITLE8=Hey Darlene
TTITLE9=Ninety-Nine
TTITLE10=Get Back Central
TTITLE11=She Sent Him Home
EXTD=
EXTT0=
EXTT1=
EXTT2=
EXTT3=
EXTT4=
EXTT5=
EXTT6=
EXTT7=
EXTT8=
EXTT9=
EXTT10=
EXTT11=
PLAYORDER=
